<?xml version="1.0" encoding="utf-8"?>
<!-- Generator: Adobe Illustrator 24.0.1, SVG Export Plug-In . SVG Version: 6.00 Build 0)  -->
<svg version="1.1" id="Layer_1" xmlns="http://www.w3.org/2000/svg" xmlns:xlink="http://www.w3.org/1999/xlink" x="0px" y="0px"
	 viewBox="0 0 246.67 246.67" style="enable-background:new 0 0 246.67 246.67;" xml:space="preserve">
<style type="text/css">
	.st0{fill:none;stroke:#104C81;stroke-width:3;stroke-miterlimit:10;}
	.st1{fill:#104C81;}
</style>
<circle class="st0" cx="123.61" cy="122.93" r="120.4"/>
<path class="st1" d="M138.61,192.07h-30.56c-1.11,0-2-0.9-2-2V55.8c0-1.11,0.9-2,2-2h30.56c1.11,0,2,0.9,2,2v134.26
	C140.62,191.17,139.72,192.07,138.61,192.07z"/>
<path class="st1" d="M54.48,138.21v-30.56c0-1.11,0.9-2,2-2h134.26c1.11,0,2,0.9,2,2v30.56c0,1.11-0.9,2-2,2H56.48
	C55.37,140.22,54.48,139.32,54.48,138.21z"/>
</svg>
