<?xml version="1.0" encoding="utf-8"?>
<!-- Generator: Adobe Illustrator 24.0.1, SVG Export Plug-In . SVG Version: 6.00 Build 0)  -->
<svg version="1.1" id="Layer_1" xmlns="http://www.w3.org/2000/svg" xmlns:xlink="http://www.w3.org/1999/xlink" x="0px" y="0px"
	 viewBox="0 0 457.49 453.26" style="enable-background:new 0 0 457.49 453.26;" xml:space="preserve">
<style type="text/css">
	.st0{fill:#FFFFFF;}
	.st1{fill:#104C81;}
	.st2{fill:#006837;}
</style>
<title>Logo_mario</title>
<path class="st0" d="M178.42,297.91c-0.35-2.76-1.18-5.14-0.61-5.54c1.61-1.07,3.5-1.64,5.43-1.66c4.08-0.06,8.17,0.19,12.21,0.77
	c6.84,0.95,13.63,2.25,20.34,3.91c3.48,0.91,6.32,1.3,9.36-0.93c7.4-5.43,14.36-11.22,18.65-19.61c1.31-2.21,2.72-4.35,4.25-6.42
	v8.29l3-4.39c0,6.69,1,13.34-0.33,19.5c-1.15,4.66-3.88,8.77-7.73,11.63c-16,11-33.36,19.59-53.13,19.13
	c-14.69-0.34-29.39-3.06-42.63-10.53c-4.48-2.53-7.24-5.73-5.92-11.3c0.34-1.3,0.19-2.68-0.41-3.88c-5.46-8.3-2.71-17.46-2.59-26.24
	c0-2.15,2.83-4.61,4.93-6.16c0.58-0.44,3.7,1.49,4.79,3c3.88,5.26,7.06,11.06,11.13,16.16c3.95,4.84,8.29,9.34,13,13.45
	C173.41,298.27,176.3,297.69,178.42,297.91z"/>
<path class="st0" d="M161.32,65.73c-0.07-10.08-8.64-12.16-12.95-18.27l7.91-3.34l4.77,6c3.4-1,6.21-0.41,7.08,4.43
	c0.38,2.1,2.26,3.92,3.27,5.55L161.32,65.73z"/>
<path class="st0" d="M125.72,235.28c-3.13-3.65-6.36-5.87-7.21-8.78c-1.14-3.92,3-4.05,5.63-4.19c3.55-0.19,7.46,3.53,6.69,6.64
	C130.36,230.85,128.19,232.39,125.72,235.28z"/>
<path class="st0" d="M277.94,231.39c-0.53,2.06-0.48,4.66-1.74,6.06c-1.59,1.75-4.28,3.53-6.46,3.49c-3.14-0.07-4.49-2.83-2.78-5.79
	c1.21-2.07,3.14-3.72,5-5.85l3.24,3.85c0.49-0.82,0.91-1.5,1.32-2.18L277.94,231.39z"/>
<path class="st0" d="M334.05,261.18c-3.33-5.5-3.33-5.5-10.94-2l3.54-5.62l-1.7-6.83l2.3-0.93c0.61,1.43,1.82,2.92,1.71,4.3
	c-0.31,4.2,1.67,4.47,5.09,3.37V261.18z"/>
<path class="st0" d="M58.71,181.39c-2.61-1.84-7.34-3.29-5.63-7c2.24-4.79,6.11-0.24,9.85,0L58.71,181.39z"/>
<path class="st0" d="M328.05,185.53l3.57-4c1.12,1.19,3.29,2.55,3.13,3.55c-0.29,1.83-2,3.44-3,5.15L328.05,185.53z"/>
<path class="st0" d="M122.45,199.9c-0.92,4.17-1.59,7.24-2.32,10.56C116.21,207.45,116.92,203.3,122.45,199.9z"/>
<path class="st0" d="M175.81,58.87l3.77,5.44c-1.34,0.53-3,1.85-4,1.45C172.39,64.39,172.98,62.15,175.81,58.87z"/>
<path class="st0" d="M123.2,76.24c0.25-2.37,0.47-4.39,0.78-7.33l6.69,8.65L123.2,76.24z"/>
<path class="st0" d="M342.37,172.8l-2-5.3c-3.89,2.15-4.86,0.18-5.26-3.52C340.65,164.49,344.19,165.96,342.37,172.8z"/>
<path class="st1" d="M457.23,451.29c-7.71-20.58-14.65-41.49-23.42-61.62c-8.25-18.93-18.24-37.15-34.56-50.82
	c-0.66-0.52-1.21-1.16-1.62-1.89c-2.29-4.59-6.29-6-11-7.32c-28.69-8.21-56.62-18.85-83.5-31.8c-2.83-1.36-5.43-3.17-7.67-5.37
	c-3.45-3.48-6.42-7.43-9.29-10.83c1.24-0.64,4-1.12,4.38-2.38c2.23-6.69,6.94-5.13,11.85-4.45c1.88,0.13,3.72-0.61,5-2
	c2.68-3.16,4.77-6.82,7.07-10.25c3.55,1.51,8.88,0.12,8.86-2.85c0-3.37-2.31-6.73-3.57-10.09l1.21-0.85c1.9,1.67,3.76,3.37,5.7,5
	c0.71,0.6,1.87,1.61,2.36,1.39c3.84-1.58,7.53-3.51,11.02-5.77c1.14-0.8,0.71-3.65,1.27-5.47c0.57-1.61,1.24-3.18,2-4.71
	c2.9,0.35,4.73,0.48,6.52,0.83c1.01,0.09,1.95,0.52,2.68,1.22c2.13,3.16,4,2.31,5.81-0.16c1.06-1.42,2.07-2.89,3.08-4.31
	c4.63,2.82,4.67,2.93,3.76,8.67c1.45-4.09,2.89-8.18,4.73-13.36l3.8,5.86c1.17-2.24,2-3.79,2.65-5l5.31,3.57c0-3.85,0-7.23,0-10.6
	c0-7.81,0-7.81,1.65-8.64c0.45,1.7,0.9,3.35,1.76,6.55c1.15-2.57,2.5-4.23,2.11-4.95c-1.6-2.59-3.37-5.08-5.29-7.44
	c-4.79,2.32-4.93,2.11-6.3-3.07c-0.37-1.41-2-2.63-3.24-3.64c-1.93-1.52-4.38-2.48-6-4.23c-2.09-2.37-3.92-4.95-5.46-7.71
	c-0.82-1.37-1.68-3.29-1.31-4.64c0.45-1.68,2.14-3,3.48-4.76l1.83,2.76c1.62-0.74,3.19-1.6,4.69-2.56
	c6.54-4.9,12.23-17.68,8.13-18.28l-1.43,3.19l-1.49,0.28c2.66-5.78,0.13-9-3.69-12.58s-2.51-9.9,2.13-13.16v6.84l5.55-4.42
	c-9.38-9.38-18.7-17.63-31.24-21.33c3.87-4,9.95,1.12,12.94-4.4l-8.76-1.09c0-5.15-3.74-5.06-8.13-4.41
	c-1.72-7.34-3.38-14.42-5.46-23.25c-3.37-3.34-8.5-4.15-12.73-2c-0.8,0.17-1.62-0.08-2.2-0.65c-2.57-3.37-5.49-6.61-7.31-10.37
	c-1.46-3-0.8-7.07-2.33-10c-3.65-7-1.58-12.71,2.34-18.73c2-3.11,3-7,4.08-10.63c0.23-0.75-0.65-2.17-1.41-2.79
	c-0.85-0.29-1.79-0.11-2.48,0.47c-2.17,3.55-4.57,7.06-6,10.92c-1.28,3.46-2.9,4.47-6.61,3.14c-4.32-1.55-8.41-5-13.45-0.49
	c-2.46,2.21-6.37-0.6-6-4.6c0.64-7.67-3.58-11.58-9.69-14.42c-2.47-1.14-5.26-1.76-7.47-3.25c-3.23-2.2-6.23-4.71-8.95-7.51
	c-1.56-1.59-2.63-3.6-3.07-5.79c-0.7-3.47-2.26-5-5.81-4.4c-1.87,0.28-3.79,0.17-5.67,0.33c-1.68,0.15-3.35,0.42-5,0.64
	c0.33,1.49,0.65,3,1,4.46c0.13,0.56,0.29,1.12,0.54,2.14c-2.47-0.93-4.41-2.21-6.39-2.26c-1.8,0-4.62,0.75-5.28,2
	c-3,5.87-3.79,6.21-11.7,3.21l3.36-2.19h-9.53c0.67,6.06,0.67,6.06-2.21,6.41c0.21-5.22-1.74-8.62-5.92-8.08s-5.6-1.47-7.73-4.32
	c-1.5-2-4.78-2.67-7.81-4.22c0.19,2.45,0.28,3.63,0.31,4l-10.2-3.12c-2.25-3.88-3.13-3.84-8,1.46l10.37,4l-0.49,1.86
	c-3.46-0.88-7-1.66-10.38-2.66c-2.52-0.75-4.93-2.45-7.43-2.54c-4-0.13-4.26-1.69-2.9-4.67c0.4-0.88,0.93-1.71,1.68-3.06
	c-6.87,0.12-12.63-5.61-19.85-2.4l14.06,5.24c0.46,1.12,1.14,2.66,1.74,4.22s1.22,3.32,1.87,5.13c7.09-0.13,8,0.16,10.44,7.31
	c0.6,1.74-1.32,4.35-2.08,6.56c-0.98-0.85-1.75-1.93-2.23-3.14c-2.41-3.71-4-7.65-10.43-4.91c-3.09,1.33-8.32-0.73-11.91-2.57
	c-3.76-1.92-8.6-3.36-9.57-8.81c-0.15-0.86-2-1.42-3.05-2.09c-2.92,3.39-3.24,9.68-0.21,13.37c4.15,5,8.8,9.68,13.38,14.64
	c-1.2,0.34-2.34,0.83-3.4,1.48c-1,0.79-1.9,1.71-2.67,2.73c-3.11-0.37-5.87-1.6-7.28-0.7c-4.64,2.94-5.61,8.25-3.21,13.43
	c-0.52,0-1,0-1.49,0c-8.54,0.53-9.9,2.29-8.89,10.61c0.2,1.61-0.74,3.36-1.16,5l-6.67-2.74l-0.62,1l6.22,5c2.24-2,4.1-4.8,6.64-5.78
	s5.84-0.22,7.88-0.22c0.78,2.9,1.67,4.85,1.74,6.83c-0.06,1.6-0.61,3.15-1.57,4.43c-0.7,1-2.68,1.18-3.18,2.19
	c-2.53,5.1-6.89,4.06-11.35,4.38c-6,0.43-12.78-0.61-17,5.57l-4.76-3.65l-3.68,5c2,0.45,4.07,1,6.16,1.34s4.9,2.05,5.83-1.91
	c0.66-2.78,2-2.66,3.7-0.63c1.86,2.3,3.54,3.73,5.51-0.15c0.41-0.79,3.41-1.19,4.36-0.54c1.23,0.85,1.44,3.06,2.42,4.44
	c0.57,0.78,1.82,1.08,2.76,1.59l0.62-0.95c1,2.17,2,4.33,3.35,7.13c-5.91,0.64-12.86-0.94-13.06,6c-3.06,1.86-5.08,4.11-7.1,4.12
	c-7.07,0-10.86,5.86-16.45,8.43c-4.71,2.16-5.74,7-3.66,11.43c0.6,1.66,0.41,3.5-0.53,5c-3.63,4.44-11.18,5.06-12.11,12.35
	c-0.05,0.35-2.06,0.19-2.71,0.76c-1.55,1.47-3.02,3.02-4.4,4.65l0.5,0.6l10.59-6.53l0.8,0.77l-2.9,5.2c0.79,0.07,1.57,0.26,2.3,0.57
	c3.74,2.2,7.46,4.43,11.08,6.83c0.65,0.43,1.32,2.11,1,2.46c-2.66,3.56-5.59,6.9-8.77,10c-1.14,1-3.71,0.45-5.61,0.73
	c-2.26,0.35-4.73,0.4-6.64,1.43c-0.92,0.5-1.17,3-1,4.5c0.11,1.17,1.72,3.29,2,3.2c6.2-2.42,8.08,4.27,12.8,5.34l-9.4,6.84
	c0.86,1.78,2.11,3.46,2.48,5.32c1,5.15,1.51,10.4,2.47,15.56c0.76,3.45,4.18,5.63,7.63,4.87c1.05-0.23,2.03-0.73,2.84-1.44
	c1.11-1.2,2.11-2.49,3-3.86c2.29,4.6,6.18,6,11.29,3.42c4.25-2.16,5.7,0,6.21,3.25c0.36,2.23-0.55,4.66-0.8,6.32l-6.67,1.43
	c3.22,2.13,6.71,3.81,10.38,5c7.51,2.71,8.19,9.4,8.87,15.79c0.45,4.3,3.9,8.85-0.41,13.05c-4.47,4.36-1,10.52-3.33,15.5
	c-0.44,0.93,1.55,3.88,3,4.62c1.75,0.86,5.34,1.17,6.06,0.2c1.12-1.53,0.63-4.34,0.56-6.6c0-1.15-1.17-3.06-0.87-3.27
	c1.11-0.88,2.51-1.32,3.93-1.23c1.37,0.3,3.62,1.73,3.57,2.56c-0.29,5.09,3.13,7.08,6.77,8.88c4.86,2.39,9.8,4.59,15.54,7.27
	c-7.94,5.54-14.9,11.76-23,15.77c-21.62,10.76-43.41,21.31-65.77,30.37c-8.22,3.33-13.48,8.15-18.75,14.63
	c-15.55,19.13-25.5,40.8-32,64.42c-3.25,12.17-7.76,24.04-11.76,36.04h457.44C457.48,452.6,457.39,451.93,457.23,451.29z
	 M366.52,149.67l-2-5.3c-3.88,2.15-4.86,0.18-5.25-3.52C364.8,141.39,368.35,142.83,366.52,149.67z M355.77,158.39
	c1.12,1.19,3.29,2.55,3.13,3.55c-0.29,1.83-1.94,3.45-3,5.15l-3.66-4.7L355.77,158.39z M350.77,230.39
	c-0.65-2.62-1.18-4.72-1.7-6.83l2.3-0.93c0.61,1.44,1.82,2.92,1.71,4.3c-0.3,4.2,1.67,4.47,5.09,3.37v7.74
	c-3.33-5.5-3.33-5.5-10.94-2L350.77,230.39z M82.86,158.27c-2.61-1.84-7.34-3.29-5.63-7c2.24-4.79,6.11-0.24,9.85,0.05L82.86,158.27
	z M148.13,45.78l6.69,8.65l-7.47-1.32C147.6,50.74,147.82,48.72,148.13,45.78z M146.6,176.78c-0.92,4.17-1.59,7.24-2.32,10.56
	c-3.92-3.02-3.23-7.17,2.32-10.57V176.78z M154.98,205.83c-0.47,1.9-2.64,3.39-5.11,6.33c-3.13-3.65-6.36-5.87-7.2-8.78
	c-1.14-3.92,2.95-4.05,5.62-4.19c3.55-0.2,7.46,3.52,6.69,6.63V205.83z M296.11,206.14l3.24,3.85c0.49-0.82,0.91-1.5,1.32-2.18
	l1.42,0.42c-0.53,2.06-0.48,4.66-1.74,6.06c-1.59,1.75-4.28,3.53-6.46,3.49c-3.14-0.07-4.49-2.83-2.77-5.79
	c1.2-2.08,3.13-3.73,4.99-5.86V206.14z M199.96,35.74l3.78,5.44c-1.35,0.53-3,1.85-4,1.45C196.54,41.3,197.13,39.02,199.96,35.74z
	 M180.43,20.99l4.77,6.05c3.4-1,6.21-0.41,7.08,4.43c0.38,2.1,2.26,3.92,3.27,5.55l-10.08,5.58c-0.07-10.08-8.64-12.16-12.95-18.27
	L180.43,20.99z M274.84,268.72c-1.14,4.67-3.87,8.8-7.73,11.67c-15.95,11-33.36,19.59-53.13,19.13
	c-14.69-0.34-29.39-3.06-42.63-10.53c-4.48-2.53-7.24-5.73-5.92-11.3c0.34-1.3,0.19-2.68-0.41-3.88c-5.46-8.3-2.7-17.46-2.58-26.24
	c0-2.15,2.83-4.61,4.92-6.16c0.59-0.44,3.7,1.49,4.79,3c3.88,5.26,7.06,11.06,11.13,16.16c3.95,4.84,8.3,9.34,13,13.46
	c1.32,1.17,4.21,0.59,6.33,0.81c-0.35-2.76-1.18-5.14-0.61-5.54c1.61-1.06,3.5-1.64,5.43-1.66c4.08-0.06,8.17,0.19,12.21,0.77
	c6.84,0.95,13.63,2.26,20.34,3.93c3.48,0.91,6.32,1.3,9.37-0.93c7.39-5.43,14.35-11.22,18.64-19.61c1.31-2.21,2.72-4.35,4.25-6.42
	v8.29l3-4.39C275.17,255.91,276.14,262.56,274.84,268.72z M265.96,242.21l-1.08-3.93c-0.63,0.57-1,0.85-1.3,1.19
	c-2.64,2.94-5.91,5.24-9.57,6.73c-8,3.41-15.94,1.59-23.8,2.79c-3.52,0.53-7.33-0.78-11-1.29c-0.65-0.09-1.3-0.66-1.89-0.58
	c-9.93,1.38-15.21-5.94-21.23-11.57c-1.66-1.56-2.14-4.38-3.45-7.24l-4.28-1.62c-0.16,3.22-0.33,6.6-0.53,10.65
	c-6.21-3.17-9.88-7.4-10.9-13.82l-1.19,1.07c-1.58-1.46-3.42-2.73-4.68-4.43c-8.26-11.12-7.54-23.48-5.27-36.26
	c0.75-4.25-1.16-9-0.19-13.18c2.1-9,4.76-15.88,15.57-17.36c6.07-0.82,12.06-2.29,18.84-3.61l-7.25-2.82l0.62-2.55l25.18,1.9
	c0.08,0.78,0.17,1.56,0.26,2.34l-7.23,1.44c-0.1,0.35-0.19,0.7-0.28,1.05l10.91,2.05c-1,2.32-2,4.7-3.08,7.12
	c5.66,1,9.88-3.25,10.83-11l-3.84-0.43l3.9-8l-1.38-1.35l-6.6,3.39c-3.36-6.05-6.47-12.82-15.76-10.82
	c-7.09,1.53-14,3.08-19.66,8.85c-0.18-0.72-0.46-1.41-0.83-2.05c-3.21-3.92-2.93-6.68,1.21-10c2.93-2.33,5.95-4.55,9.19-7
	c-5.13-3.68-6.72,3.7-11.75,3.12l5.67-6.94l-1-1.37c-2.29,1.62-5.29,2.77-6.72,4.95c-3.69,5.62-6.46,11.85-10.07,17.53
	c-1.45,2.28-4.13,3.78-6.25,5.64l-1.34-0.73c2.23-4.87,4.23-9.87,6.78-14.56c1.72-3.16,4.38-5.8,6.32-8.86
	c0.94-1.47,1.23-3.37,1.71-5.1c1.25-4.46,1.91-9.19,3.84-13.32c1.28-2.73,4.12-4.94,6.68-6.81c4.47-3.25,9.11-6.25,13.9-9
	c1.96-0.96,4.09-1.51,6.27-1.62c9.23-0.91,18.45-1.93,27.7-2.3c3.51-0.15,7.1,1.29,10.62,2.13c3.81,0.9,7.59,1.91,11.36,2.95
	c1.42,0.39,3.25,0.57,4.08,1.53c5.56,6.44,10.91,13.07,16.32,19.64c0.23,0.24,0.42,0.52,0.55,0.83c3.26,11.1,6.54,22.2,9.7,33.33
	c0.27,0.95-0.23,2.11-0.37,3.17l-1,0.23c-2.48-6.52-4.95-13.02-7.4-19.49l-4.18,5.07c2.05,2.49,4.76,4.66,5.94,7.48
	c2.14,5.09,3.36,10.57,5.36,17.22c-2.8-1.47-5.91-2-6.7-3.7c-4.55-9.68-10.95-16.55-22.83-16.45l16.39-9.79h-13.95
	c-0.83,0-1.67-0.14-2.49-0.06c-2,0.2-4,0.49-5.94,0.74c0.46,2.05,0.93,4.1,1.67,7.36l-13.11,8.23c1.09,3,2.12,6.49,3.62,9.72
	c0.47,1,2.22,1.38,3.39,2.05c0-1.17,0.08-2.35,0.1-3.52c0-0.62,0-1.24,0-2.77l8.11,3.48l-3.3-7.31c1.42-0.43,3.46-1.77,4.72-1.24
	s2,2.87,3.35,5.09c11.06,1.59,19.39,9.92,29,16.51c0.24-1.08,0.49-2.28,1-4.49c0.48,2.76,0.69,4.52,1.1,6.23c2,8,2,15.72-3.49,22.65
	c-0.73,0.92-1.28,2.79-0.83,3.71c4.06,8.42-0.41,16-2.53,23.58c-1.5,5.41-4.24,10.47-6.54,15.64
	C278.35,235.24,274.57,237.87,265.96,242.21L265.96,242.21z"/>
<path class="st2" d="M383.94,162.55l4-2.5l-0.23-0.79h-4.45c-2.88-4,4.3-9.69-2.84-12.71C379.05,152.9,377.14,159.16,383.94,162.55z
	"/>
<path class="st1" d="M66.27,165.12c4.71,0.24,2.39-4.18,3.61-6.29l-6.67-2.44C63.34,160.55,61.26,164.86,66.27,165.12z"/>
<path class="st1" d="M210.85,198.93c-3.41,1.32-4.76-0.56-4-4.2c0.25-1.19,0.1-3.37-0.52-3.65c-1.44-0.65-3.72-1.1-4.85-0.37
	c-1.41,0.91-3.07,3.39-2.71,4.63c0.53,1.82,2.77,3.14,3.6,4c-0.64,1.69-2.26,4.14-1.71,4.81c4.53,5.55,9.58,10.65,17.4,11
	c1.14,0.05,3.39-1.23,3.33-1.61c-0.68-4.38,2.58-5,5.47-6.63l-18.42-1.44c0.49-1,0.79-2.56,1.4-2.7c4.72-1.24,9.53-2.13,14.38-2.66
	c5-0.36,10.14,0.34,15.21,0.34c4.91,0,9.72,0,12.95,4.56c0.53,0.74,1.11,2.13,0.78,2.63c-0.7,0.83-1.68,1.36-2.76,1.48
	c-1.53,0.14-3.06,0.16-4.59,0.07l2.22,8.6c4.3,0.69,5.06,0.22,16.28-11.17c-7.17-3.28-13.49-8.46-19.92-8.61
	C233.31,197.75,221.94,194.62,210.85,198.93z"/>
<path class="st1" d="M217.5,170.87c6.1,2,11.4,3.66,16.71,5.35C230.69,167.95,223.26,164.68,217.5,170.87z"/>
<path class="st1" d="M208.51,123.08c-2.1,0.49-4,2-6.69,3.5c4.26,1.06,7.86,2.29,11.56,2.73c1.75,0.21,3.69-1.11,5.54-1.73
	c-1.53-1.33-2.87-3.07-4.64-3.86C212.47,122.91,210.45,122.69,208.51,123.08z"/>
<path class="st1" d="M252.05,173.18c-3.16-4.38-7.25-4.64-11.08-0.74C244.7,176.98,248.29,175.14,252.05,173.18z"/>
<path class="st1" d="M262.27,196.97c-0.94-0.25-2.13,0.42-3.56,0.75c0.82,1.12,1.22,2.27,2,2.59c1.98,0.77,4.02,1.35,6.11,1.72
	c0.44-0.82,0.73-1.72,0.86-2.64C266,198.34,264.18,197.52,262.27,196.97z"/>
<path class="st1" d="M212.81,175.53c2.5,1.13,5.52,1.1,8.32,1.55c0-0.35,0-0.7,0-1.05l-10.56-5.28
	C211.27,172.31,211.57,174.97,212.81,175.53z"/>
</svg>
