<?xml version="1.0" encoding="utf-8"?>
<!-- Generator: Adobe Illustrator 24.0.1, SVG Export Plug-In . SVG Version: 6.00 Build 0)  -->
<svg version="1.1" id="Layer_1" xmlns="http://www.w3.org/2000/svg" xmlns:xlink="http://www.w3.org/1999/xlink" x="0px" y="0px"
	 viewBox="0 0 457.5 453.3" style="enable-background:new 0 0 457.5 453.3;" xml:space="preserve">
<style type="text/css">
	.st0{fill:#FFFFFF;}
	.st1{fill:#104C81;}
	.st2{fill:#006837;}
	.st3{fill:#E60000;}
</style>
<title>Logo_mario</title>
<path class="st0" d="M202.5,274.8c-0.4-2.8-1.2-5.1-0.6-5.5c1.6-1.1,3.5-1.6,5.4-1.7c4.1-0.1,8.2,0.2,12.2,0.8
	c6.8,1,13.6,2.2,20.3,3.9c3.5,0.9,6.3,1.3,9.4-0.9c7.4-5.4,14.4-11.2,18.6-19.6c1.3-2.2,2.7-4.4,4.2-6.4v8.3l3-4.4
	c0,6.7,1,13.3-0.3,19.5c-1.1,4.7-3.9,8.8-7.7,11.6c-16,11-33.4,19.6-53.1,19.1c-14.7-0.3-29.4-3.1-42.6-10.5
	c-4.5-2.5-7.2-5.7-5.9-11.3c0.3-1.3,0.2-2.7-0.4-3.9c-5.5-8.3-2.7-17.5-2.6-26.2c0-2.1,2.8-4.6,4.9-6.2c0.6-0.4,3.7,1.5,4.8,3
	c3.9,5.3,7.1,11.1,11.1,16.2c3.9,4.8,8.3,9.3,13,13.5C197.5,275.2,200.4,274.6,202.5,274.8z"/>
<path class="st0" d="M161.3,65.7c-0.1-10.1-8.6-12.2-12.9-18.3l7.9-3.3l4.8,6c3.4-1,6.2-0.4,7.1,4.4c0.4,2.1,2.3,3.9,3.3,5.5
	L161.3,65.7z"/>
<path class="st0" d="M125.7,235.3c-3.1-3.6-6.4-5.9-7.2-8.8c-1.1-3.9,3-4.1,5.6-4.2c3.6-0.2,7.5,3.5,6.7,6.6
	C130.4,230.9,128.2,232.4,125.7,235.3z"/>
<path class="st0" d="M277.9,231.4c-0.5,2.1-0.5,4.7-1.7,6.1c-1.6,1.8-4.3,3.5-6.5,3.5c-3.1-0.1-4.5-2.8-2.8-5.8
	c1.2-2.1,3.1-3.7,5-5.9l3.2,3.9c0.5-0.8,0.9-1.5,1.3-2.2L277.9,231.4z"/>
<path class="st0" d="M334,261.2c-3.3-5.5-3.3-5.5-10.9-2l3.5-5.6l-1.7-6.8l2.3-0.9c0.6,1.4,1.8,2.9,1.7,4.3
	c-0.3,4.2,1.7,4.5,5.1,3.4L334,261.2L334,261.2z"/>
<path class="st0" d="M58.7,181.4c-2.6-1.8-7.3-3.3-5.6-7c2.2-4.8,6.1-0.2,9.9,0L58.7,181.4z"/>
<path class="st0" d="M328,185.5l3.6-4c1.1,1.2,3.3,2.6,3.1,3.6c-0.3,1.8-2,3.4-3,5.1L328,185.5z"/>
<path class="st0" d="M122.4,199.9c-0.9,4.2-1.6,7.2-2.3,10.6C116.2,207.4,116.9,203.3,122.4,199.9z"/>
<path class="st0" d="M175.8,58.9l3.8,5.4c-1.3,0.5-3,1.8-4,1.4C172.4,64.4,173,62.2,175.8,58.9z"/>
<path class="st0" d="M123.2,76.2c0.2-2.4,0.5-4.4,0.8-7.3l6.7,8.7L123.2,76.2z"/>
<path class="st0" d="M342.4,172.8l-2-5.3c-3.9,2.1-4.9,0.2-5.3-3.5C340.6,164.5,344.2,166,342.4,172.8z"/>
<path class="st1" d="M457.2,451.3c-7.7-20.6-14.6-41.5-23.4-61.6c-8.2-18.9-18.2-37.1-34.6-50.8c-0.7-0.5-1.2-1.2-1.6-1.9
	c-2.3-4.6-6.3-6-11-7.3c-28.7-8.2-56.6-18.9-83.5-31.8c-2.8-1.4-5.4-3.2-7.7-5.4c-3.5-3.5-6.4-7.4-9.3-10.8c1.2-0.6,4-1.1,4.4-2.4
	c2.2-6.7,6.9-5.1,11.9-4.5c1.9,0.1,3.7-0.6,5-2c2.7-3.2,4.8-6.8,7.1-10.2c3.5,1.5,8.9,0.1,8.9-2.9c0-3.4-2.3-6.7-3.6-10.1l1.2-0.9
	c1.9,1.7,3.8,3.4,5.7,5c0.7,0.6,1.9,1.6,2.4,1.4c3.8-1.6,7.5-3.5,11-5.8c1.1-0.8,0.7-3.6,1.3-5.5c0.6-1.6,1.2-3.2,2-4.7
	c2.9,0.4,4.7,0.5,6.5,0.8c1,0.1,2,0.5,2.7,1.2c2.1,3.2,4,2.3,5.8-0.2c1.1-1.4,2.1-2.9,3.1-4.3c4.6,2.8,4.7,2.9,3.8,8.7
	c1.5-4.1,2.9-8.2,4.7-13.4l3.8,5.9c1.2-2.2,2-3.8,2.6-5l5.3,3.6c0-3.9,0-7.2,0-10.6c0-7.8,0-7.8,1.6-8.6c0.5,1.7,0.9,3.4,1.8,6.6
	c1.1-2.6,2.5-4.2,2.1-4.9c-1.6-2.6-3.4-5.1-5.3-7.4c-4.8,2.3-4.9,2.1-6.3-3.1c-0.4-1.4-2-2.6-3.2-3.6c-1.9-1.5-4.4-2.5-6-4.2
	c-2.1-2.4-3.9-4.9-5.5-7.7c-0.8-1.4-1.7-3.3-1.3-4.6c0.5-1.7,2.1-3,3.5-4.8l1.8,2.8c1.6-0.7,3.2-1.6,4.7-2.6
	c6.5-4.9,12.2-17.7,8.1-18.3l-1.4,3.2l-1.5,0.3c2.7-5.8,0.1-9-3.7-12.6s-2.5-9.9,2.1-13.2v6.8l5.5-4.4c-9.4-9.4-18.7-17.6-31.2-21.3
	c3.9-4,10,1.1,12.9-4.4l-8.8-1.1c0-5.2-3.7-5.1-8.1-4.4c-1.7-7.3-3.4-14.4-5.5-23.2c-3.4-3.3-8.5-4.2-12.7-2
	c-0.8,0.2-1.6-0.1-2.2-0.7c-2.6-3.4-5.5-6.6-7.3-10.4c-1.5-3-0.8-7.1-2.3-10c-3.6-7-1.6-12.7,2.3-18.7c2-3.1,3-7,4.1-10.6
	c0.2-0.8-0.6-2.2-1.4-2.8c-0.9-0.3-1.8-0.1-2.5,0.5c-2.2,3.5-4.6,7.1-6,10.9c-1.3,3.5-2.9,4.5-6.6,3.1c-4.3-1.5-8.4-5-13.5-0.5
	c-2.5,2.2-6.4-0.6-6-4.6c0.6-7.7-3.6-11.6-9.7-14.4c-2.5-1.1-5.3-1.8-7.5-3.2c-3.2-2.2-6.2-4.7-9-7.5c-1.6-1.6-2.6-3.6-3.1-5.8
	c-0.7-3.5-2.3-5-5.8-4.4c-1.9,0.3-3.8,0.2-5.7,0.3c-1.7,0.1-3.4,0.4-5,0.6c0.3,1.5,0.6,3,1,4.5c0.1,0.6,0.3,1.1,0.5,2.1
	c-2.5-0.9-4.4-2.2-6.4-2.3c-1.8,0-4.6,0.8-5.3,2c-3,5.9-3.8,6.2-11.7,3.2l3.4-2.2h-9.5c0.7,6.1,0.7,6.1-2.2,6.4
	c0.2-5.2-1.7-8.6-5.9-8.1s-5.6-1.5-7.7-4.3c-1.5-2-4.8-2.7-7.8-4.2c0.2,2.4,0.3,3.6,0.3,4l-10.2-3.1c-2.2-3.9-3.1-3.8-8,1.5l10.4,4
	l-0.5,1.9c-3.5-0.9-7-1.7-10.4-2.7c-2.5-0.8-4.9-2.4-7.4-2.5c-4-0.1-4.3-1.7-2.9-4.7c0.4-0.9,0.9-1.7,1.7-3.1
	c-6.9,0.1-12.6-5.6-19.9-2.4l14.1,5.2c0.5,1.1,1.1,2.7,1.7,4.2s1.2,3.3,1.9,5.1c7.1-0.1,8,0.2,10.4,7.3c0.6,1.7-1.3,4.4-2.1,6.6
	c-1-0.9-1.8-1.9-2.2-3.1c-2.4-3.7-4-7.6-10.4-4.9c-3.1,1.3-8.3-0.7-11.9-2.6c-3.8-1.9-8.6-3.4-9.6-8.8c-0.1-0.9-2-1.4-3.1-2.1
	c-2.9,3.4-3.2,9.7-0.2,13.4c4.1,5,8.8,9.7,13.4,14.6c-1.2,0.3-2.3,0.8-3.4,1.5c-1,0.8-1.9,1.7-2.7,2.7c-3.1-0.4-5.9-1.6-7.3-0.7
	c-4.6,2.9-5.6,8.2-3.2,13.4c-0.5,0-1,0-1.5,0c-8.5,0.5-9.9,2.3-8.9,10.6c0.2,1.6-0.7,3.4-1.2,5l-6.7-2.7l-0.6,1l6.2,5
	c2.2-2,4.1-4.8,6.6-5.8s5.8-0.2,7.9-0.2c0.8,2.9,1.7,4.8,1.7,6.8c-0.1,1.6-0.6,3.2-1.6,4.4c-0.7,1-2.7,1.2-3.2,2.2
	c-2.5,5.1-6.9,4.1-11.3,4.4c-6,0.4-12.8-0.6-17,5.6L91,85.4l-3.7,5c2,0.4,4.1,1,6.2,1.3s4.9,2.1,5.8-1.9c0.7-2.8,2-2.7,3.7-0.6
	c1.9,2.3,3.5,3.7,5.5-0.2c0.4-0.8,3.4-1.2,4.4-0.5c1.2,0.8,1.4,3.1,2.4,4.4c0.6,0.8,1.8,1.1,2.8,1.6l0.6-0.9c1,2.2,2,4.3,3.3,7.1
	c-5.9,0.6-12.9-0.9-13.1,6c-3.1,1.9-5.1,4.1-7.1,4.1c-7.1,0-10.9,5.9-16.5,8.4c-4.7,2.2-5.7,7-3.7,11.4c0.6,1.7,0.4,3.5-0.5,5
	c-3.6,4.4-11.2,5.1-12.1,12.4c-0.1,0.4-2.1,0.2-2.7,0.8c-1.6,1.5-3,3-4.4,4.6l0.5,0.6l10.6-6.5l0.8,0.8l-2.9,5.2
	c0.8,0.1,1.6,0.3,2.3,0.6c3.7,2.2,7.5,4.4,11.1,6.8c0.7,0.4,1.3,2.1,1,2.5c-2.7,3.6-5.6,6.9-8.8,10c-1.1,1-3.7,0.4-5.6,0.7
	c-2.3,0.4-4.7,0.4-6.6,1.4c-0.9,0.5-1.2,3-1,4.5c0.1,1.2,1.7,3.3,2,3.2c6.2-2.4,8.1,4.3,12.8,5.3l-9.4,6.8c0.9,1.8,2.1,3.5,2.5,5.3
	c1,5.1,1.5,10.4,2.5,15.6c0.8,3.4,4.2,5.6,7.6,4.9c1.1-0.2,2-0.7,2.8-1.4c1.1-1.2,2.1-2.5,3-3.9c2.3,4.6,6.2,6,11.3,3.4
	c4.2-2.2,5.7,0,6.2,3.2c0.4,2.2-0.6,4.7-0.8,6.3l-6.7,1.4c3.2,2.1,6.7,3.8,10.4,5c7.5,2.7,8.2,9.4,8.9,15.8c0.4,4.3,3.9,8.9-0.4,13
	c-4.5,4.4-1,10.5-3.3,15.5c-0.4,0.9,1.6,3.9,3,4.6c1.8,0.9,5.3,1.2,6.1,0.2c1.1-1.5,0.6-4.3,0.6-6.6c0-1.1-1.2-3.1-0.9-3.3
	c1.1-0.9,2.5-1.3,3.9-1.2c1.4,0.3,3.6,1.7,3.6,2.6c-0.3,5.1,3.1,7.1,6.8,8.9c4.9,2.4,9.8,4.6,15.5,7.3c-7.9,5.5-14.9,11.8-23,15.8
	c-21.6,10.8-43.4,21.3-65.8,30.4c-8.2,3.3-13.5,8.1-18.8,14.6c-15.5,19.1-25.5,40.8-32,64.4c-3.2,12.2-7.8,24-11.8,36h457.4
	C457.5,452.6,457.4,451.9,457.2,451.3z M366.5,149.7l-2-5.3c-3.9,2.1-4.9,0.2-5.2-3.5C364.8,141.4,368.4,142.8,366.5,149.7z
	 M355.8,158.4c1.1,1.2,3.3,2.6,3.1,3.6c-0.3,1.8-1.9,3.4-3,5.1l-3.7-4.7L355.8,158.4z M350.8,230.4c-0.6-2.6-1.2-4.7-1.7-6.8
	l2.3-0.9c0.6,1.4,1.8,2.9,1.7,4.3c-0.3,4.2,1.7,4.5,5.1,3.4v7.7c-3.3-5.5-3.3-5.5-10.9-2L350.8,230.4z M82.9,158.3
	c-2.6-1.8-7.3-3.3-5.6-7c2.2-4.8,6.1-0.2,9.8,0.1L82.9,158.3z M148.1,45.8l6.7,8.7l-7.5-1.3C147.6,50.7,147.8,48.7,148.1,45.8z
	 M146.6,176.8c-0.9,4.2-1.6,7.2-2.3,10.6C140.4,184.3,141.1,180.2,146.6,176.8L146.6,176.8z M155,205.8c-0.5,1.9-2.6,3.4-5.1,6.3
	c-3.1-3.6-6.4-5.9-7.2-8.8c-1.1-3.9,2.9-4.1,5.6-4.2C151.8,199,155.8,202.7,155,205.8L155,205.8z M296.1,206.1l3.2,3.9
	c0.5-0.8,0.9-1.5,1.3-2.2l1.4,0.4c-0.5,2.1-0.5,4.7-1.7,6.1c-1.6,1.8-4.3,3.5-6.5,3.5c-3.1-0.1-4.5-2.8-2.8-5.8
	C292.3,209.9,294.3,208.3,296.1,206.1L296.1,206.1L296.1,206.1z M200,35.7l3.8,5.4c-1.4,0.5-3,1.8-4,1.5
	C196.5,41.3,197.1,39,200,35.7z M180.4,21l4.8,6.1c3.4-1,6.2-0.4,7.1,4.4c0.4,2.1,2.3,3.9,3.3,5.5l-10.1,5.6
	c-0.1-10.1-8.6-12.2-12.9-18.3L180.4,21z M274.8,268.7c-1.1,4.7-3.9,8.8-7.7,11.7c-15.9,11-33.4,19.6-53.1,19.1
	c-14.7-0.3-29.4-3.1-42.6-10.5c-4.5-2.5-7.2-5.7-5.9-11.3c0.3-1.3,0.2-2.7-0.4-3.9c-5.5-8.3-2.7-17.5-2.6-26.2
	c0-2.1,2.8-4.6,4.9-6.2c0.6-0.4,3.7,1.5,4.8,3c3.9,5.3,7.1,11.1,11.1,16.2c3.9,4.8,8.3,9.3,13,13.5c1.3,1.2,4.2,0.6,6.3,0.8
	c-0.4-2.8-1.2-5.1-0.6-5.5c1.6-1.1,3.5-1.6,5.4-1.7c4.1-0.1,8.2,0.2,12.2,0.8c6.8,1,13.6,2.3,20.3,3.9c3.5,0.9,6.3,1.3,9.4-0.9
	c7.4-5.4,14.3-11.2,18.6-19.6c1.3-2.2,2.7-4.4,4.2-6.4v8.3l3-4.4C275.2,255.9,276.1,262.6,274.8,268.7z M266,242.2l-1.1-3.9
	c-0.6,0.6-1,0.9-1.3,1.2c-2.6,2.9-5.9,5.2-9.6,6.7c-8,3.4-15.9,1.6-23.8,2.8c-3.5,0.5-7.3-0.8-11-1.3c-0.6-0.1-1.3-0.7-1.9-0.6
	c-9.9,1.4-15.2-5.9-21.2-11.6c-1.7-1.6-2.1-4.4-3.4-7.2l-4.3-1.6c-0.2,3.2-0.3,6.6-0.5,10.6c-6.2-3.2-9.9-7.4-10.9-13.8l-1.2,1.1
	c-1.6-1.5-3.4-2.7-4.7-4.4c-8.3-11.1-7.5-23.5-5.3-36.3c0.8-4.2-1.2-9-0.2-13.2c2.1-9,4.8-15.9,15.6-17.4c6.1-0.8,12.1-2.3,18.8-3.6
	l-7.2-2.8l0.6-2.6l25.2,1.9c0.1,0.8,0.2,1.6,0.3,2.3l-7.2,1.4c-0.1,0.4-0.2,0.7-0.3,1.1l10.9,2.1c-1,2.3-2,4.7-3.1,7.1
	c5.7,1,9.9-3.2,10.8-11l-3.8-0.4l3.9-8l-1.4-1.4l-6.6,3.4c-3.4-6.1-6.5-12.8-15.8-10.8c-7.1,1.5-14,3.1-19.7,8.9
	c-0.2-0.7-0.5-1.4-0.8-2.1c-3.2-3.9-2.9-6.7,1.2-10c2.9-2.3,5.9-4.6,9.2-7c-5.1-3.7-6.7,3.7-11.8,3.1l5.7-6.9l-1-1.4
	c-2.3,1.6-5.3,2.8-6.7,4.9c-3.7,5.6-6.5,11.9-10.1,17.5c-1.4,2.3-4.1,3.8-6.2,5.6l-1.3-0.7c2.2-4.9,4.2-9.9,6.8-14.6
	c1.7-3.2,4.4-5.8,6.3-8.9c0.9-1.5,1.2-3.4,1.7-5.1c1.2-4.5,1.9-9.2,3.8-13.3c1.3-2.7,4.1-4.9,6.7-6.8c4.5-3.2,9.1-6.2,13.9-9
	c2-1,4.1-1.5,6.3-1.6c9.2-0.9,18.4-1.9,27.7-2.3c3.5-0.2,7.1,1.3,10.6,2.1c3.8,0.9,7.6,1.9,11.4,2.9c1.4,0.4,3.2,0.6,4.1,1.5
	c5.6,6.4,10.9,13.1,16.3,19.6c0.2,0.2,0.4,0.5,0.5,0.8c3.3,11.1,6.5,22.2,9.7,33.3c0.3,0.9-0.2,2.1-0.4,3.2l-1,0.2
	c-2.5-6.5-5-13-7.4-19.5l-4.2,5.1c2,2.5,4.8,4.7,5.9,7.5c2.1,5.1,3.4,10.6,5.4,17.2c-2.8-1.5-5.9-2-6.7-3.7
	c-4.5-9.7-11-16.6-22.8-16.4l16.4-9.8h-14c-0.8,0-1.7-0.1-2.5-0.1c-2,0.2-4,0.5-5.9,0.7c0.5,2.1,0.9,4.1,1.7,7.4l-13.1,8.2
	c1.1,3,2.1,6.5,3.6,9.7c0.5,1,2.2,1.4,3.4,2.1c0-1.2,0.1-2.4,0.1-3.5c0-0.6,0-1.2,0-2.8l8.1,3.5l-3.3-7.3c1.4-0.4,3.5-1.8,4.7-1.2
	s2,2.9,3.4,5.1c11.1,1.6,19.4,9.9,29,16.5c0.2-1.1,0.5-2.3,1-4.5c0.5,2.8,0.7,4.5,1.1,6.2c2,8,2,15.7-3.5,22.6
	c-0.7,0.9-1.3,2.8-0.8,3.7c4.1,8.4-0.4,16-2.5,23.6c-1.5,5.4-4.2,10.5-6.5,15.6C278.4,235.2,274.6,237.9,266,242.2L266,242.2z"/>
<path class="st2" d="M383.9,162.6l4-2.5l-0.2-0.8h-4.5c-2.9-4,4.3-9.7-2.8-12.7C379,152.9,377.1,159.2,383.9,162.6z"/>
<path class="st1" d="M66.3,165.1c4.7,0.2,2.4-4.2,3.6-6.3l-6.7-2.4C63.3,160.6,61.3,164.9,66.3,165.1z"/>
<path class="st1" d="M210.9,198.9c-3.4,1.3-4.8-0.6-4-4.2c0.2-1.2,0.1-3.4-0.5-3.6c-1.4-0.6-3.7-1.1-4.9-0.4
	c-1.4,0.9-3.1,3.4-2.7,4.6c0.5,1.8,2.8,3.1,3.6,4c-0.6,1.7-2.3,4.1-1.7,4.8c4.5,5.6,9.6,10.6,17.4,11c1.1,0.1,3.4-1.2,3.3-1.6
	c-0.7-4.4,2.6-5,5.5-6.6l-18.4-1.4c0.5-1,0.8-2.6,1.4-2.7c4.7-1.2,9.5-2.1,14.4-2.7c5-0.4,10.1,0.3,15.2,0.3c4.9,0,9.7,0,12.9,4.6
	c0.5,0.7,1.1,2.1,0.8,2.6c-0.7,0.8-1.7,1.4-2.8,1.5c-1.5,0.1-3.1,0.2-4.6,0.1l2.2,8.6c4.3,0.7,5.1,0.2,16.3-11.2
	c-7.2-3.3-13.5-8.5-19.9-8.6C233.3,197.8,221.9,194.6,210.9,198.9z"/>
<path class="st1" d="M217.5,170.9c6.1,2,11.4,3.7,16.7,5.4C230.7,167.9,223.3,164.7,217.5,170.9z"/>
<path class="st1" d="M208.5,123.1c-2.1,0.5-4,2-6.7,3.5c4.3,1.1,7.9,2.3,11.6,2.7c1.8,0.2,3.7-1.1,5.5-1.7c-1.5-1.3-2.9-3.1-4.6-3.9
	C212.5,122.9,210.4,122.7,208.5,123.1z"/>
<path class="st1" d="M252.1,173.2c-3.2-4.4-7.2-4.6-11.1-0.7C244.7,177,248.3,175.1,252.1,173.2z"/>
<path class="st1" d="M262.3,197c-0.9-0.2-2.1,0.4-3.6,0.8c0.8,1.1,1.2,2.3,2,2.6c2,0.8,4,1.4,6.1,1.7c0.4-0.8,0.7-1.7,0.9-2.6
	C266,198.3,264.2,197.5,262.3,197z"/>
<path class="st1" d="M212.8,175.5c2.5,1.1,5.5,1.1,8.3,1.6c0-0.4,0-0.7,0-1.1l-10.6-5.3C211.3,172.3,211.6,175,212.8,175.5z"/>
<g>
	<path class="st3" d="M104.9,426.4H32.2v-32.8l72.7-86.4h34.8v88.3h18v31h-18v26.8h-34.8V426.4z M104.9,395.5v-45.2l-38.4,45.2
		H104.9z"/>
	<path class="st3" d="M170.1,380.9c0-27.3,4.9-46.4,14.7-57.3c9.8-10.9,24.8-16.4,44.9-16.4c9.7,0,17.6,1.2,23.8,3.6
		c6.2,2.4,11.3,5.5,15.2,9.3s7,7.8,9.3,12c2.3,4.2,4.1,9.1,5.4,14.7c2.7,10.7,4,21.9,4,33.5c0,26.1-4.4,45.1-13.2,57.2
		c-8.8,12.1-24,18.1-45.5,18.1c-12.1,0-21.8-1.9-29.3-5.8c-7.4-3.9-13.6-9.5-18.3-16.9c-3.5-5.3-6.2-12.5-8.1-21.7
		C171.1,402.1,170.1,392,170.1,380.9z M209.7,381c0,18.3,1.6,30.8,4.8,37.5c3.2,6.7,7.9,10,14.1,10c4,0,7.6-1.4,10.5-4.3
		c3-2.8,5.2-7.3,6.6-13.5c1.4-6.1,2.1-15.7,2.1-28.7c0-19.1-1.6-31.9-4.8-38.4c-3.2-6.6-8.1-9.8-14.5-9.8c-6.6,0-11.4,3.3-14.3,10
		C211.1,350.5,209.7,362.9,209.7,381z"/>
	<path class="st3" d="M372.5,426.4h-72.7v-32.8l72.7-86.4h34.8v88.3h18v31h-18v26.8h-34.8V426.4z M372.5,395.5v-45.2l-38.4,45.2
		H372.5z"/>
</g>
</svg>
